<svg xmlns="http://www.w3.org/2000/svg" width="26.749" height="27.839" viewBox="0 0 26.749 27.839"><defs><style>.a{fill:#535c61;stroke:#636769;stroke-width:0.5px;}</style></defs><g transform="translate(0.251 0.25)"><g transform="translate(0 2.572)"><path class="a" d="M27.2,25.838H.956l0-.574a4.985,4.985,0,0,1,3.863-4.822V13.757a9.257,9.257,0,1,1,18.514,0v6.684A4.986,4.986,0,0,1,27.2,25.263ZM2.148,24.695H26.01A3.84,3.84,0,0,0,22.7,21.488l-.5-.061v-7.67a8.114,8.114,0,0,0-16.228,0v7.669l-.5.061A3.84,3.84,0,0,0,2.148,24.695Z" transform="translate(-0.956 -4.5)"/></g><g transform="translate(10.384)"><path class="a" d="M20.268,3.422H19.125V2.739a2.739,2.739,0,1,1,5.477,0v.672H23.459V2.739a1.6,1.6,0,1,0-3.191,0Z" transform="translate(-19.125)"/></g><g transform="translate(8.449 23.236)"><path class="a" d="M20.405,44.758a4.777,4.777,0,0,1-4.666-3.8l1.12-.229a3.621,3.621,0,0,0,7.106-.07l1.124.206A4.758,4.758,0,0,1,20.405,44.758Z" transform="translate(-15.739 -40.655)"/></g><g transform="translate(4.437 18.421)"><rect class="a" width="2.104" height="1.143"/></g></g></svg>