<svg xmlns="http://www.w3.org/2000/svg" width="37.755" height="31.896" viewBox="0 0 37.755 31.896"><defs><style>.a{fill:#585858;}</style></defs><path class="a" d="M37.1,274.891H19.8c1.535-1.575,4.709-2.6,8.189-2.6a13.389,13.389,0,0,1,7.446,1.97l.756-1.059a14.485,14.485,0,0,0-8.2-2.213,18.168,18.168,0,0,0-3.693.373,16.989,16.989,0,0,1,2.936-.907,13.387,13.387,0,0,1,7.693.38l.521-1.194a14.467,14.467,0,0,0-8.483-.456c-3.6.763-6.615,2.474-8.087,4.51-1.472-2.035-4.491-3.749-8.085-4.513a14.516,14.516,0,0,0-8.483.455l.521,1.194a13.39,13.39,0,0,1,7.693-.38,17.011,17.011,0,0,1,2.936.906,18.169,18.169,0,0,0-3.695-.369,14.486,14.486,0,0,0-8.2,2.213l.756,1.06a13.382,13.382,0,0,1,7.446-1.971c3.479,0,6.653,1.029,8.189,2.6H.65a.651.651,0,0,0-.651.651v2.6a.651.651,0,0,0,.651.651H37.1a.651.651,0,0,0,.651-.651v-2.6a.651.651,0,0,0-.651-.651Zm-35.8,1.3H18.226v1.3H1.3Zm35.151,1.3H19.527v-1.3H36.452Zm0,0" transform="translate(0.001 -246.901)"/><path class="a" d="M84.715,20.755a.65.65,0,0,0,.606,0c.52-.273,12.716-6.771,12.716-13.6A7.169,7.169,0,0,0,90.877,0,7.1,7.1,0,0,0,85.018,3.05,7.1,7.1,0,0,0,79.16,0,7.169,7.169,0,0,0,72,7.16c0,6.824,12.2,13.322,12.716,13.6ZM79.16,1.3a5.818,5.818,0,0,1,5.273,3.32.677.677,0,0,0,1.172,0A5.855,5.855,0,0,1,96.735,7.16c0,5.5-9.849,11.238-11.717,12.277C83.148,18.4,73.3,12.66,73.3,7.16A5.866,5.866,0,0,1,79.16,1.3Zm0,0" transform="translate(-66.141 0.001)"/></svg>