<svg xmlns="http://www.w3.org/2000/svg" width="30.187" height="30.736" viewBox="0 0 30.187 30.736"><defs><style>.a{fill:#ffd949;}.b{fill:#f4bf1a;}.c{fill:#dca815;}</style></defs><g transform="translate(-0.5)"><path class="a" d="M19.947,30.736C12.52,30.736,6.5,23.856,6.5,15.368S12.52,0,19.947,0,33.394,6.881,33.394,15.368s-6.02,15.368-13.447,15.368" transform="translate(-2.707)"/><path class="b" d="M3.793,15.368c0-7.85,5.151-14.321,11.8-15.25A11.926,11.926,0,0,0,13.947,0C6.52,0,.5,6.881.5,15.368S6.52,30.736,13.947,30.736a11.926,11.926,0,0,0,1.647-.119c-6.649-.929-11.8-7.4-11.8-15.25"/><path class="b" d="M22.1,30.2h-.047a9.782,9.782,0,0,1-1.15-.068.549.549,0,1,1,.13-1.09,8.642,8.642,0,0,0,1.02.06.569.569,0,0,1,.572.549.529.529,0,0,1-.525.549m3.192-.591a.549.549,0,0,1-.194-1.063,9.025,9.025,0,0,0,.936-.415.549.549,0,1,1,.5.976,10.2,10.2,0,0,1-1.051.466.54.54,0,0,1-.193.036m-7.429-.419a.545.545,0,0,1-.248-.06,10.464,10.464,0,0,1-.993-.575.549.549,0,1,1,.6-.918,9.294,9.294,0,0,0,.888.515.549.549,0,0,1-.249,1.038M28.9,27.238a.549.549,0,0,1-.39-.935,10.326,10.326,0,0,0,.69-.77.549.549,0,0,1,.852.693c-.242.3-.5.583-.762.85a.549.549,0,0,1-.39.162m-14.39-.773a.55.55,0,0,1-.425-.2c-.238-.291-.467-.6-.679-.914a.549.549,0,1,1,.91-.614c.194.288.4.568.619.832a.549.549,0,0,1-.424.9m16.8-2.819a.549.549,0,0,1-.5-.768c.138-.315.263-.642.374-.971a.549.549,0,0,1,1.041.35c-.121.358-.258.715-.408,1.059a.551.551,0,0,1-.5.33m-18.9-.97a.55.55,0,0,1-.52-.372c-.121-.356-.229-.722-.32-1.088a.549.549,0,0,1,1.065-.265c.084.336.183.673.294,1a.549.549,0,0,1-.342.7.54.54,0,0,1-.177.03m19.932-3.237-.043,0a.549.549,0,0,1-.5-.59c.026-.333.039-.672.039-1.009a.564.564,0,0,1,.549-.566.534.534,0,0,1,.549.531v.036c0,.365-.014.733-.042,1.094a.549.549,0,0,1-.547.507M11.715,18.393a.544.544,0,0,1-.549-.543v-.012c0-.374.015-.751.044-1.118a.549.549,0,1,1,1.094.087c-.027.339-.041.686-.041,1.031a.554.554,0,0,1-.549.555m20.273-3.273a.548.548,0,0,1-.531-.414c-.085-.338-.184-.673-.3-1a.549.549,0,1,1,1.038-.356c.122.355.23.72.322,1.086a.549.549,0,0,1-.4.666.512.512,0,0,1-.135.017m-19.578-1a.55.55,0,0,1-.52-.726c.121-.357.259-.713.41-1.058a.549.549,0,1,1,1.006.44c-.139.317-.265.644-.376.971a.55.55,0,0,1-.52.373m17.822-2.96a.548.548,0,0,1-.455-.241c-.194-.287-.4-.566-.62-.83a.549.549,0,0,1,.847-.7c.239.29.468.6.682.913a.549.549,0,0,1-.454.857m-15.738-.835a.549.549,0,0,1-.424-.9c.242-.3.5-.582.763-.848a.549.549,0,0,1,.779.774c-.239.241-.473.5-.693.769a.545.545,0,0,1-.425.2M27.162,8.117a.543.543,0,0,1-.3-.089,9.336,9.336,0,0,0-.89-.513.549.549,0,0,1,.5-.98,10.3,10.3,0,0,1,.994.572.549.549,0,0,1-.3,1.009M17.842,7.6a.549.549,0,0,1-.25-1.038,10.144,10.144,0,0,1,1.052-.463.549.549,0,1,1,.384,1.028,8.982,8.982,0,0,0-.938.413.543.543,0,0,1-.248.06m5.272-.96a.5.5,0,0,1-.064,0,8.677,8.677,0,0,0-1-.058.559.559,0,0,1-.56-.549.539.539,0,0,1,.537-.549h.023a9.761,9.761,0,0,1,1.125.065.549.549,0,0,1-.063,1.094" transform="translate(-4.812 -2.47)"/><path class="c" d="M3.792,29H.5c.011.369.032.735.065,1.1H3.86q-.051-.543-.068-1.1" transform="translate(0 -13.083)"/><path class="c" d="M3.939,24H.648c-.046.362-.078.728-.1,1.1H3.84c.023-.369.054-.736.1-1.1" transform="translate(-0.021 -10.827)"/><path class="c" d="M4.341,34H1.047q.107.557.248,1.1H4.587q-.14-.541-.246-1.1" transform="translate(-0.247 -15.339)"/><path class="c" d="M5.738,39h-3.3c.14.374.295.739.459,1.1H6.2q-.247-.537-.458-1.1" transform="translate(-0.877 -17.594)"/><path class="c" d="M4.83,19H1.54c-.107.361-.207.726-.29,1.1h3.3c.083-.371.176-.738.283-1.1" transform="translate(-0.338 -8.572)"/><path class="c" d="M6.64,14H3.347c-.181.357-.352.723-.508,1.1h3.3q.234-.561.506-1.1" transform="translate(-1.055 -6.316)"/><path class="c" d="M10.4,8h-3.3q-.468.524-.89,1.1h3.3q.422-.574.891-1.1" transform="translate(-2.579 -3.609)"/><path class="c" d="M15.923,3h-3.3a13.2,13.2,0,0,0-1.611,1.1h3.3A13.223,13.223,0,0,1,15.923,3" transform="translate(-4.742 -1.353)"/><path class="c" d="M8.811,45H5.516q.382.571.808,1.1h3.3q-.426-.527-.81-1.1" transform="translate(-2.263 -20.301)"/><path class="c" d="M9.832,50a13.613,13.613,0,0,0,1.385,1.1h3.3A13.5,13.5,0,0,1,13.124,50Z" transform="translate(-4.21 -22.557)"/></g></svg>