<svg xmlns="http://www.w3.org/2000/svg" width="33.404" height="29.277" viewBox="0 0 33.404 29.277"><defs><style>.a{fill:#4e4b4b;}</style></defs><g transform="translate(0 -26.576)"><g transform="translate(0 26.576)"><g transform="translate(0)"><path class="a" d="M177.4,159.668a3.407,3.407,0,1,0,3.407,3.407A3.407,3.407,0,0,0,177.4,159.668Zm0,5.192a1.785,1.785,0,1,1,0-3.57h0a1.785,1.785,0,0,1,0,3.57Z" transform="translate(-160.48 -149.334)"/><path class="a" d="M30.505,29.121,8.357,26.606a3.042,3.042,0,0,0-2.393.69A3.083,3.083,0,0,0,4.788,29.4l-.406,3.326H3.124A3.26,3.26,0,0,0,0,36.1V52.689a3.083,3.083,0,0,0,3,3.163H25.394A3.33,3.33,0,0,0,28.8,52.689V52.04a4.056,4.056,0,0,0,1.541-.649,3.367,3.367,0,0,0,1.176-2.19l1.866-16.469A3.286,3.286,0,0,0,30.505,29.121ZM27.179,52.689a1.708,1.708,0,0,1-1.785,1.541H3.124a1.46,1.46,0,0,1-1.5-1.417q0-.062,0-.125v-3l6.287-4.624a1.947,1.947,0,0,1,2.515.122l4.421,3.894a3.813,3.813,0,0,0,2.393.892,3.691,3.691,0,0,0,1.947-.527l7.991-4.624v7.869Zm0-9.776-8.843,5.152a2.069,2.069,0,0,1-2.393-.2l-4.462-3.935a3.61,3.61,0,0,0-4.5-.162L1.624,47.659V36.1a1.637,1.637,0,0,1,1.5-1.744h22.27A1.866,1.866,0,0,1,27.179,36.1v6.815Zm4.585-10.4,0,.016L29.856,49a1.379,1.379,0,0,1-.527,1.1c-.162.162-.527.243-.527.325V36.1a3.488,3.488,0,0,0-3.407-3.367H6l.365-3.164a1.866,1.866,0,0,1,.608-1.055,1.866,1.866,0,0,1,1.217-.325L30.3,30.743A1.623,1.623,0,0,1,31.764,32.512Z" transform="translate(0 -26.576)"/></g></g></g></svg>