<?xml version="1.0" encoding="utf-8"?>
<!-- Generator: Adobe Illustrator 22.1.0, SVG Export Plug-In . SVG Version: 6.00 Build 0)  -->
<svg version="1.1" id="Layer_1" xmlns="http://www.w3.org/2000/svg" xmlns:xlink="http://www.w3.org/1999/xlink" x="0px" y="0px"
	 viewBox="0 0 812.3 818" style="enable-background:new 0 0 812.3 818;" xml:space="preserve">
<style type="text/css">
	.st0{fill:#F2F2F2;}
	.st1{opacity:0.4;fill:#6C63FF;enable-background:new    ;}
	.st2{fill:#3F3D56;}
	.st3{fill:#6C63FF;}
	.st4{fill:#2F2E41;}
	.st5{fill:#FFB8B8;}
	.st6{opacity:0.1;enable-background:new    ;}
	.st7{fill:#D0CDE1;}
	.st8{fill:#878FFB;}
	.st9{fill:#FFFFFF;}
	.st10{font-family:'Arial-BoldMT';}
	.st11{font-size:39px;}
	.st12{font-size:75px;}
</style>
<g id="Group_622" transform="translate(-1218.413 -0.068)">
	<g id="undraw_reading_0re1" transform="translate(1533.357 460)">
		<path id="Path_33" class="st0" d="M523.1,133.8l-49.5,23.4l43.8-32.7c-7.1-11.1-15.1-21.6-23.9-31.4L279,146.4l193.8-73.9
			c-8.9-7.8-18.3-15-28.1-21.4l-326.8,52.6C83.1,147,64.2,200.9,64.2,256.5h491.9C556.1,213.4,544.7,171.1,523.1,133.8z"/>
		<path id="Path_34" class="st0" d="M417.9,35.8C316.1-13.7,193.6,12.6,121.2,99.6C198.4,82.7,332.9,53.4,417.9,35.8z"/>
		
			<ellipse id="Ellipse_4" transform="matrix(0.2298 -0.9732 0.9732 0.2298 308.4663 493.9323)" class="st1" cx="466.3" cy="52.1" rx="7.4" ry="7.4"/>
		<circle id="Ellipse_5" class="st1" cx="452.6" cy="55.6" r="5.2"/>
		<circle id="Ellipse_6" class="st1" cx="117.4" cy="71.6" r="15.4"/>
		<circle id="Ellipse_7" class="st1" cx="88.9" cy="79" r="10.8"/>
		<path id="Path_35" class="st2" d="M505.5,256l-39.3-58.3c0,0,59.4,20.7,52.7,58.3H505.5z"/>
		<path id="Path_36" class="st3" d="M507,256l39.2-58.3c0,0-59.4,20.7-52.7,58.3H507z"/>
		<path id="Path_38" class="st0" d="M408.4-7.5c0-3.2-4.6-5.8-10.2-5.8c-0.1,0-0.2,0-0.3,0c-1.7-5.2-9.8-9.2-19.4-9.2
			c-8.2,0-15.3,2.9-18.3,6.9c-2.2-0.6-4.5-0.9-6.7-0.9c-8.7,0-15.7,4-15.7,8.9c0,4.5,5.8,8.2,13.3,8.8c7.8,1.2,15.8,1.8,23.7,1.6
			c16.3,0,28.3-3.1,28.6-5.5C406.4-3.5,408.4-5.3,408.4-7.5z"/>
		<path id="Path_40" class="st4" d="M340.4,67.7C330.2,50.4,310,49.6,310,49.6s-19.7-2.5-32.3,23.8c-11.8,24.5-28,48.2-2.6,53.9
			l4.6-14.3l2.8,15.4c3.6,0.3,7.2,0.3,10.9,0.2c27.2-0.9,53.1,0.3,52.3-9.5C344.5,106,350.2,84.3,340.4,67.7z"/>
		<path id="Path_41" class="st4" d="M273.5,218.8c-0.3,1.9-0.7,3.8-1.3,5.6c-0.6,1.8-1.6,3.5-2.2,5.3c-1.9,5.8,0.7,12.2,4.8,16.7
			c3.6,3.9,8.2,6.6,13.3,7.9c3.8,0.8,7.6,1.2,11.4,1.2c10.6,0.4,21.5,0.7,31.6-2.7c3.2-1.1,6.3-2.5,9.2-4.2c0.9-0.4,1.7-1.1,2.4-1.9
			c0.7-1.2,1-2.5,0.9-3.8c0-4.5-0.9-9-0.7-13.5c0.1-2.5,0.6-5,0.4-7.5c-0.7-5.8-4.9-10.5-10.5-11.9c-2.9-0.4-5.8-0.4-8.7,0
			c-7.5,0.7-15.1,1.1-22.7,1c-7.7,0-15.4-1.2-23.1-1.4c-2.3,0-2.2,0.7-3,2.9C274.5,214.7,274,216.8,273.5,218.8z"/>
		<path id="Path_42" class="st5" d="M295.5,107.7c-0.2,2-0.9,3.9-1.9,5.6c-1.3,1.8-3.5,2.9-5,4.7c-2.2,2.7-2.3,6.4-2.3,9.8
			c0,3.2,0.1,6.5,1.8,9.2c1.3,1.6,2.8,3,4.6,4c6.6,4.5,13.8,9,21.8,9.1c3.3,0.1,6.9-0.8,9-3.3c0.9-1.2,1.7-2.5,2.2-3.9
			c2-5,3.3-10.3,3.7-15.8c0.3-2.5,0.1-5.1-0.7-7.6c-1-2.7-2.9-4.9-4.2-7.5c-1.5-3-2.1-6.5-1.6-9.9c0.1-0.2,0-0.5-0.1-0.7
			c-0.2-0.2-0.5-0.4-0.9-0.3l-15.8-1.1c-1.5-0.1-2.9-0.2-4.4-0.5c-0.9-0.2-3.1-1.4-3.9-1.1C296.2,99.1,295.8,106.1,295.5,107.7z"/>
		<path id="Path_43" class="st6" d="M295.5,107.7c-0.2,2-0.9,3.9-1.9,5.6c-1.3,1.8-3.5,2.9-5,4.7c-2.2,2.7-2.3,6.4-2.3,9.8
			c0,3.2,0.1,6.5,1.8,9.2c1.3,1.6,2.8,3,4.6,4c6.6,4.5,13.8,9,21.8,9.1c3.3,0.1,6.9-0.8,9-3.3c0.9-1.2,1.7-2.5,2.2-3.9
			c2-5,3.3-10.3,3.7-15.8c0.3-2.5,0.1-5.1-0.7-7.6c-1-2.7-2.9-4.9-4.2-7.5c-1.5-3-2.1-6.5-1.6-9.9c0.1-0.2,0-0.5-0.1-0.7
			c-0.2-0.2-0.5-0.4-0.9-0.3l-15.8-1.1c-1.5-0.1-2.9-0.2-4.4-0.5c-0.9-0.2-3.1-1.4-3.9-1.1C296.2,99.1,295.8,106.1,295.5,107.7z"/>
		<circle id="Ellipse_8" class="st5" cx="310.7" cy="86.6" r="23.2"/>
		<path id="Path_44" class="st7" d="M298.8,138.6c1.1,1.3,2.5,2.4,4.1,3.3c1.6,0.7,3.3,1,5.1,1c4.2,0.1,8.7-0.6,11.6-3.7
			c3.8-3.9,3.6-10.1,6.6-14.7c0.2-0.4,0.6-0.8,0.9-1c0.5-0.3,1.1-0.4,1.6-0.4c3.7,0,7,2.4,9.9,4.7c1.4,0.9,2.6,2.1,3.5,3.5
			c0.6,1.1,1,2.3,1.2,3.6c1.3,7.1,2.1,14.3,2.4,21.5c0.3,4,0.5,8,0.5,12c-0.1,13.1-3.1,26.1-6.2,38.8c-0.4,1.6-0.9,3.5-2.4,4.3
			c-0.7,0.3-1.4,0.5-2.1,0.5c-8.7,1.2-17.4,1.9-26.2,2.2c-3.4,0.1-6.8,0-10.2-0.2c-0.6,0-1.2-0.1-1.7-0.3c-0.8-0.4-1.4-0.9-1.9-1.6
			c-4.7-6-5-14.2-5-21.8c0.1-18.6,0.7-37.2,2-55.9c0.1-1.5,0.1-3.4-1-4.6C293.6,132.9,296,135.9,298.8,138.6z"/>
		<path id="Path_45" class="st3" d="M293.9,111.8c-0.8,1.4-6.6,4.9-7.7,6.1c-6.2,6.6-17.6,6.3-23.3,13.4c-1.9,2.6-3.2,5.5-3.8,8.7
			c-1.1,4.4-1.7,9.1,0.2,13.3c1.7,4,5.4,6.7,7.9,10.3c2.7,3.9,4,8.6,5.2,13.2c0.9,3.4,1.8,6.9,1.4,10.4c-0.4,4-2.3,7.6-3.4,11.5
			s-1.3,8.4,1.3,11.4c1.9,2.2,5,3.1,7.9,3.6c3.7,0.6,7.5,0.9,11.2,1c3.3,0.1,7,0.2,9.5-1.9c1.9-1.8,3-4.4,3-7s-0.3-5.2-0.8-7.8
			c-0.4-2.7-0.5-5.4-0.6-8.1c-0.5-12.1-0.6-24.3-0.2-36.5c0.2-2.5,0.1-5.1-0.4-7.6c-0.7-3.3-2.5-6.2-3.9-9.2
			c-2.9-5.6-4.3-12-3.8-18.3C293.8,111.7,296.7,106.7,293.9,111.8z"/>
		<path id="Path_46" class="st3" d="M326.5,112.3c1.2,1.2,5.3,1.6,6.8,2.4c1.4,0.7,2.9,1.2,4.5,1.5c5.5,1.6,10.8,4,15.6,7.2
			c1,0.6,1.9,1.4,2.6,2.3c0.8,1.2,1.3,2.6,1.4,4.1c0.9,3.7,1.3,7.4,1.3,11.2c-0.2,4-1.4,7.8-2.6,11.7l-4.5,14.2
			c-3.3,10.6-6.7,21.3-7.6,32.4c-0.5,6.1-0.3,12.3,0.7,18.4c0.2,0.6,0.1,1.2-0.2,1.8c-0.3,0.3-0.7,0.5-1.1,0.5
			c-2.1,0.3-4.2-0.8-6.2-1.7c-5.9-3-12.3-5-18.8-6.2c2.6-3.7,4.5-7.8,5.9-12.1c0.8-2.7,1.3-5.5,1.8-8.3l2.1-12
			c0.8-4.4,1.4-8.8,1.8-13.2c0.2-1.7,0.1-3.3-0.3-5c-0.5-1.6-1.1-3.1-1.9-4.5c-3.4-7.1-5-15.2-3.7-23c0.6-3.4,1.7-6.8,1.3-10.2
			c-0.5-3.3,0-5.8-0.8-9.1C321,101.4,324.2,110,326.5,112.3z"/>
		<path id="Path_47" class="st3" d="M262.8,142.5c-1.6,3.2-4.2,6-5,9.5c-0.3,1.6-0.5,3.3-0.4,4.9c-0.2,2.5,0.1,5,0.7,7.4
			c0.5,1.5,1.3,2.9,1.9,4.4c0.8,2.1,1.2,4.3,1.1,6.6c-0.2,3.1-1.2,6.1-1.3,9.2c-0.1,4.9,2.1,9.5,4.3,13.9c2.1-5.2,8-7.7,13.3-5.6
			c0.5,0.2,1.1,0.5,1.5,0.8c0.5-0.6,0.7-1.4,0.7-2.2c0.2-5.7,0.3-11.4,0.5-17c0.2-8.8,0.5-17.7-1.6-26.2c-0.8-3.9-2.5-7.6-4.9-10.7
			c-1.4-1.6-6-5.7-8.3-4c-1,0.8-0.8,3-0.9,4.1C264.1,139.2,263.6,140.9,262.8,142.5L262.8,142.5z"/>
		<path id="Path_48" class="st3" d="M359.2,133.2c0.6,2.3,0.9,4.7,0.8,7.1c0,4.9,0,9.8-0.2,14.7c0,2.5-0.3,5-1,7.5
			c-0.5,1.6-1.3,3.1-1.8,4.6c-1.6,4.7-0.7,9.8-0.6,14.8c0.1,1.6,0,3.2-0.4,4.8c-0.8,3.1-3,5.6-4.6,8.4c-1.5,2.6-2.3,5.6-4.1,8.1
			s-4.8,4.4-7.7,3.7c-2.2-0.6-3.8-2.5-4.9-4.6c-2.4-4.4-3.2-9.5-2.3-14.5c1.1-6,4.6-11.4,5.9-17.4c1.8-8.2-0.9-16.7-0.8-25.1
			c0-1.3,0.1-2.6,0.5-3.9c0.8-1.9,2-3.6,3.4-5c1.7-1.9,3.2-4,4.6-6.1c1-1.4,2.2-5.1,3.9-5.4C353.8,124.3,358.2,130.3,359.2,133.2z"
			/>
		<path id="Path_49" class="st4" d="M243.3,215.2c-2.1-0.5-4.2-0.8-6.4-0.7c-8.8,0.5-15.5,8-15,16.8c0,0.7,0.1,1.3,0.2,2
			c0.5,2.4,1.4,4.7,2.5,6.9c1.7,3.4,3.7,6.9,6.8,9.1c1.9,1.2,3.9,2.2,6,2.9l16.5,6.2c2.4,0.9,4.8,1.8,7.3,2.7
			c12.3,4.3,25.1,6.8,38.1,7.6c4,0.4,7.9,0.2,11.8-0.6c0.9-0.1,1.8-0.6,2.4-1.3c0.3-0.5,0.5-1.2,0.5-1.8l1-7.1c0.2-1,0.2-2-0.1-3
			c-0.6-1.1-1.6-2.1-2.7-2.6c-10.8-6.2-23.5-9.7-32.6-18.2c-2.1-2-3.9-5.2-6.6-6.6c-3-1.5-6.4-2.4-9.5-3.9
			C257.1,220.4,250.5,216.9,243.3,215.2z"/>
		<path id="Path_50" class="st6" d="M259.7,224.8c5.8,1.8,30.4,14.5,34.6,18.9c-0.6,0.2-19.7-10.5-20.3-10.7
			c-5.3-1.4-10.4-3.3-15.5-5.4c-1-0.5-6.5-2.6-6.2-3.9C252.6,222.2,258.7,224.4,259.7,224.8z"/>
		<path id="Path_51" class="st5" d="M332.4,272.2c0.3,0,0.7-0.1,0.9-0.3c0.2-0.3,0.3-0.7,0.3-1.1c0-3.2,0-6.4,0-9.7
			c-2.9-1.2-5.9-1.9-8.9-2.2l-14.2-1.9c0.3,0-2.2,6.1-1.8,7c0.7,1.4,6,2.7,7.5,3.4C321.2,269.9,326.6,272.4,332.4,272.2z"/>
		<path id="Path_52" class="st5" d="M287.7,261.2c-2.7,0.4-5.7,0.8-7.4,2.9c-2.2,2.7-1.3,6.6-0.2,9.9c0.3,1.8,1.9,3,3.7,2.7h0.1
			c2.5,0.2,5.1,0.3,7.2-0.9c1-0.6,1.9-1.3,2.8-2.1c1.6-1.1,3.3-1.8,5.1-2.4c3.4-1.1,6.8-1.8,10.3-2.1c1.4-0.1,2.8-0.3,4.1-0.7
			c1.3-0.4,2.4-1.5,2.9-2.8c0.5-1.8-0.5-3.5-1.5-5.1c-1.1-2-2.6-3.8-4.3-5.4c-2.7-2.1-4-0.5-6.6,0.8
			C298.7,258.6,293.3,260.3,287.7,261.2z"/>
		<path id="Path_53" class="st4" d="M280.7,263.6l-17.1-5c-2-0.7-4.2-1.1-6.4-1.2c-2.2-0.1-4.3,0.8-5.8,2.4c-1.3,1.6-1.7,3.7-2,5.7
			l-0.7,4.3c-0.5,2.2-0.6,4.4-0.4,6.6s1.5,4.3,3.4,5.5c2.4,1.3,5.3,0.7,7.9,0.1c5.3-1.1,10.8-1.7,16.2-1.7c2,0,4.2,0,6-1
			c2.1-1.3,3.5-3.5,3.7-6C285.7,269.6,284.5,264.8,280.7,263.6z"/>
		<path id="Path_54" class="st4" d="M339.1,259.2c2.2-0.4,4.2-1.6,6.3-2.4c3-1,6.2-1,9.4-1c1.2-0.1,2.3,0.1,3.4,0.7
			c1.4,0.9,1.8,2.8,2,4.4l1.4,10c0.4,1.9,0.4,3.8,0.1,5.7c-0.3,1.9-1.7,3.5-3.5,4.1c-2.2,0.6-4.4-0.8-6.5-1.8
			c-5.3-2.3-11.4-1.7-16.9-3.5c-1.1-0.2-2-0.9-2.5-1.8c-0.2-0.6-0.3-1.1-0.2-1.7c0.1-3.2-0.6-7.6,0.4-10.7
			C333.3,258.4,336.6,259.2,339.1,259.2z"/>
		<path id="Path_55" class="st4" d="M375.3,211.2c3.4-0.9,7-1.1,10.4-0.7c2.8,0.3,5.7,1.1,7.7,3c2.5,2.4,3.3,6,3.3,9.4
			c0.1,6.8-2.2,13.5-6.4,18.8c-1,1.3-2.3,2.5-3.7,3.5c-1.5,0.9-3.1,1.7-4.8,2.3l-36.9,14.6c-9.7,3.8-19.5,7.7-29.6,10.2
			c-1.1,0.6-2.5,0.1-3.1-1.1l0,0c-3.2-4.6-5.9-9.6-8.1-14.8c-0.3-0.4-0.3-1.1,0.1-1.4c0.1-0.1,0.2-0.1,0.3-0.2l26.1-15
			c1.9-1,3.7-2.2,5.3-3.7c1.1-1.1,2.1-2.4,2.7-3.8c0.5-1.1,0.6-3.8,1.3-4.6c0.7-0.8,3-0.9,4.1-1.2c1.5-0.5,3-1,4.4-1.7
			c5.8-2.6,11-6.4,16.6-9.5C368.4,213.5,371.8,212.1,375.3,211.2L375.3,211.2z"/>
		<path id="Path_56" class="st6" d="M360.5,222.4c-4.5,3.4-10.3,6.5-14.7,9.9c-1.5,1.2-26.8,15.4-27.2,17.3
			c4.1,0.7,30.6-17.8,34.3-19.6c3.7-2,7.2-4.3,10.5-7c0.8-0.7,4.4-2.6,2-3.4C364,219.1,361.5,221.7,360.5,222.4z"/>
		<path id="Path_57" class="st4" d="M335.9,66l-20-10.5l-27.6,4.3L282.6,85l14.2-0.5l4-9.3v9.1l6.6-0.3l3.8-14.7l2.4,15.7l23.3-0.5
			L335.9,66z"/>
		<rect id="Rectangle_15" x="288.4" y="117.7" class="st2" width="43" height="51.9"/>
		<path id="Path_58" class="st5" d="M268,207.9c0.9,1.5,2.2,2.8,3.7,3.7c2,0.9,4.4,0.9,6.4-0.2s3.6-2.7,4.6-4.6
			c2.2-3.8,2.6-8.4,2.3-12.8s-1.2-8.7-1.6-13.1c-0.3-3.2-0.3-6.4-0.4-9.6c-0.1-0.7,0.1-1.4,0.4-1.9c0.6-0.6,1.3-1,2.1-1.1
			c4.4-1.3,7.3-5.4,9.4-9.5c1.4-2.7,2.6-5.7,2.3-8.7s-2.5-6.1-5.5-6.4c-2.5-0.3-4.8,1.3-6.6,3.1c-4.6,4.4-7.5,10.3-8.3,16.6
			c-0.4,3.1-0.3,6.3-1.1,9.3c-1.8,6.4-7.4,10.3-10.2,16.1C262.6,195.1,264.3,202.3,268,207.9z"/>
		<path id="Path_59" class="st5" d="M350.7,183.4c-1.3,3-3.7,5.4-6.8,6.5c-1.9,0.8-3.9,0.9-5.9,0.4s-3.6-2-4.3-3.9
			c-0.3-0.9-0.5-1.9-0.5-2.9c-0.3-4.3-0.2-8.8,1.4-12.8c0.6-1.6,1.4-3,1.9-4.6c0.5-1.8,0.7-3.7,0.7-5.7l0.5-11.8
			c0.1-0.9,0-1.7-0.2-2.6c-0.5-1.7-2.1-2.8-3.6-3.8c-3.5-2.5-7-5.3-8.7-9.3c-0.6-1.2-0.8-2.5-0.6-3.8c0.5-2.3,2.8-3.9,5.2-4.4
			c6.2-1.4,12.4,2.6,13.8,8.8c0,0.2,0.1,0.3,0.1,0.5c0.2,1.3,0.2,2.7,0.4,4c0.3,2.8,1.2,5.6,1.8,8.4c1.4,6.9,0.7,14.1,2,21
			C349,173.3,353.3,177.1,350.7,183.4z"/>
		<path id="Path_60" class="st4" d="M84.8,255.5h-1c0.4-11,1.6-21.9,3.5-32.7c4.3-23.2,11.4-38.4,21.1-45.2l0.6,0.8
			C86.2,194.3,84.8,254.9,84.8,255.5z"/>
		<path id="Path_61" class="st4" d="M97.1,255.3h-1c0-1.1,0.6-26.9,10.8-34l0.6,0.8C97.7,228.9,97.1,255,97.1,255.3z"/>
		<circle id="Ellipse_9" class="st3" cx="114.6" cy="173.5" r="4.9"/>
		<circle id="Ellipse_10" class="st3" cx="112.1" cy="216" r="4.9"/>
		<path id="Path_62" class="st4" d="M94.8,181.4c0.5,3.8,0,7.7-1.5,11.2c-5.3-5.9-6.6-14.3-3.4-21.5
			C92.4,174.1,94.1,177.6,94.8,181.4z"/>
		<path id="Path_63" class="st4" d="M111,195.8c-3.7,1.2-7.6,1.3-11.3,0.5c4.9-6.2,12.9-9,20.6-7.1
			C117.7,192.2,114.6,194.5,111,195.8z"/>
		<path id="Path_64" class="st4" d="M111.1,233.4c-2.6,0.8-5.3,0.9-7.9,0.3c3.4-4.3,9.1-6.3,14.4-4.9
			C115.9,230.9,113.7,232.5,111.1,233.4z"/>
	</g>
	<path id="Intersection_1" class="st8" d="M2044,287.7V0.1h-701.2c40.9,48.1,70.5,89.3,81.5,99.5c13.1,12.2-47.1,100.2-53,104.7
		c34.7-1.1,133.7-46.6,148.1-37c32.5,21.6,126.7,78.6,241.7,100.7c59.6,11.5,139.6,20.9,228.2,20.9
		C2007.1,289,2025.5,288.6,2044,287.7z M1371.2,204.3h-0.5c0,0.1,0,0.2,0.1,0.2C1371,204.5,1371.1,204.4,1371.2,204.3z"/>
	<g id="Group_623" transform="translate(-8 31)">
		<text transform="matrix(1 0 0 1 1846.0001 63.9991)" class="st9 st10 st11">Inspiring</text>
		<text transform="matrix(1 0 0 1 1586.1461 126.9991)" class="st9 st10 st12">Bangladesh</text>
	</g>
</g>
</svg>
