<svg xmlns="http://www.w3.org/2000/svg" width="29.374" height="29.377" viewBox="0 0 29.374 29.377"><defs><style>.a{fill:#555c61;}</style></defs><g transform="translate(0 0)"><path class="a" d="M25.083,4.3A14.685,14.685,0,0,0,3.389,24.054a5.619,5.619,0,0,1-2.354,2.609,1.378,1.378,0,0,0,.4,2.6,7.59,7.59,0,0,0,1.161.087,8.769,8.769,0,0,0,5.167-1.714A14.683,14.683,0,0,0,25.083,4.3ZM23.9,23.887A13.008,13.008,0,0,1,8.109,25.911a.835.835,0,0,0-1.019.13.276.276,0,0,0-.068.05,7.171,7.171,0,0,1-4.428,1.578H2.588a8.223,8.223,0,0,0,2.522-3.348.858.858,0,0,0,.043-.54.872.872,0,0,0-.2-.472,13.009,13.009,0,1,1,18.949.578Z" transform="translate(-0.019)"/><circle class="a" cx="1.031" cy="1.031" r="1.031" transform="translate(13.649 13.657)"/><circle class="a" cx="1.031" cy="1.031" r="1.031" transform="translate(18.965 13.657)"/><circle class="a" cx="1.031" cy="1.031" r="1.031" transform="translate(8.332 13.657)"/></g></svg>