<svg xmlns="http://www.w3.org/2000/svg" width="33.099" height="30.203" viewBox="0 0 33.099 30.203"><defs><style>.a{fill:#fb5b5b;}</style></defs><g transform="translate(0 -22.397)"><g transform="translate(9.645 34.031)"><path class="a" d="M172.239,205.034l-3.541-2.5a.971.971,0,0,0-1.529.793v1.527h-17a.97.97,0,1,0,0,1.939h17v1.527a.971.971,0,0,0,1.528.793l3.541-2.5A.972.972,0,0,0,172.239,205.034Z" transform="translate(-149.195 -202.358)"/></g><g transform="translate(0 22.397)"><path class="a" d="M27.828,43.725a.97.97,0,0,0-1.325.354,13.162,13.162,0,1,1,0-13.161.97.97,0,1,0,1.679-.971,15.1,15.1,0,1,0,0,15.1A.97.97,0,0,0,27.828,43.725Z" transform="translate(0 -22.397)"/></g></g></svg>