<svg xmlns="http://www.w3.org/2000/svg" width="27.98" height="27.339" viewBox="0 0 27.98 27.339"><defs><style>.a{fill:#535c61;}</style></defs><g transform="translate(0 0)"><g transform="translate(0 0)"><path class="a" d="M27.261,7.542a.727.727,0,0,0-.725.725V27.511A3.689,3.689,0,0,1,22.85,31.2H5.136A3.689,3.689,0,0,1,1.45,27.511V6.751H22.675V25.42a.725.725,0,0,0,1.45,0V6.026A.727.727,0,0,0,23.4,5.3H.725A.727.727,0,0,0,0,6.026V27.5A5.139,5.139,0,0,0,5.136,32.64H22.844A5.139,5.139,0,0,0,27.979,27.5V8.268A.718.718,0,0,0,27.261,7.542Z" transform="translate(0 -5.301)"/><path class="a" d="M72.23,75.951a.725.725,0,1,0,0-1.45H56.425a.725.725,0,1,0,0,1.45Z" transform="translate(-52.335 -70.32)"/><path class="a" d="M72.23,319.1H56.425a.725.725,0,0,0,0,1.45h15.8a.725.725,0,0,0,.006-1.45Z" transform="translate(-52.335 -300.142)"/><path class="a" d="M111.223,380.6h-13.3a.725.725,0,1,0,0,1.45h13.3a.725.725,0,1,0,0-1.45Z" transform="translate(-91.327 -357.926)"/><path class="a" d="M51.7,129.126v7.842a.727.727,0,0,0,.725.725H60.3a.727.727,0,0,0,.725-.725v-7.842a.727.727,0,0,0-.725-.725H52.425A.727.727,0,0,0,51.7,129.126Zm1.45.725h6.422v6.392H53.15Z" transform="translate(-48.576 -120.964)"/><path class="a" d="M243.339,140.4h-5.214a.725.725,0,0,0,0,1.45h5.214a.725.725,0,1,0,0-1.45Z" transform="translate(-223.057 -132.239)"/><path class="a" d="M243.339,194.6h-5.214a.725.725,0,0,0,0,1.45h5.214a.725.725,0,1,0,0-1.45Z" transform="translate(-223.057 -183.164)"/><path class="a" d="M244.064,252.926a.727.727,0,0,0-.725-.725h-5.214a.725.725,0,0,0,0,1.45h5.214A.723.723,0,0,0,244.064,252.926Z" transform="translate(-223.057 -237.284)"/></g></g></svg>