<svg xmlns="http://www.w3.org/2000/svg" width="42.017" height="30.846" viewBox="0 0 42.017 30.846"><defs><style>.a{fill:#585858;}</style></defs><g transform="translate(0 -68.066)"><g transform="translate(32.231 81.228)"><g transform="translate(0 0)"><path class="a" d="M397.59,229.172a12.009,12.009,0,0,0-4.224-.723.615.615,0,1,0,0,1.231,10.628,10.628,0,0,1,3.673.593.616.616,0,0,0,.551-1.1Z" transform="translate(-392.751 -228.449)"/></g></g><g transform="translate(0 68.066)"><g transform="translate(0 0)"><path class="a" d="M40.139,90.714,37.6,89.988a.258.258,0,0,1-.186-.247v-.848A4.625,4.625,0,0,0,38,88.409a4.528,4.528,0,0,0,1.386-3.276V83.963l.246-.491a3.927,3.927,0,0,0,.412-1.747V78.553a.616.616,0,0,0-.615-.615H33.5A3.91,3.91,0,0,0,29.6,81.843v.037a3.265,3.265,0,0,0,.343,1.452l.315.63v1.005a4.8,4.8,0,0,0,1.974,3.883v.889c0,.137,0,.194-.508.339l-1.24.354-3.588-1.3a.615.615,0,0,0-.168-.471l-1.147-1.2V85.431c.121-.1.241-.2.356-.311a7.224,7.224,0,0,0,2.276-5.251V78.254a7.115,7.115,0,0,0,.658-2.992V68.681a.616.616,0,0,0-.615-.615H19.042a5.887,5.887,0,0,0-5.88,5.88v1.316a7.115,7.115,0,0,0,.658,2.992v1.389a7.521,7.521,0,0,0,2.632,5.74v2.07l-1.147,1.2a.615.615,0,0,0-.168.471l-3.787,1.377a3.228,3.228,0,0,0-.761.4l-.595-.3A4.7,4.7,0,0,0,12.354,88.7a.615.615,0,0,0,0-.55,10.934,10.934,0,0,1-.541-3.821c-.014-.435-.028-.846-.054-1.212a5.354,5.354,0,0,0-5.221-5.179,5.354,5.354,0,0,0-5.221,5.179c-.026.366-.04.777-.054,1.212a10.935,10.935,0,0,1-.541,3.821.615.615,0,0,0,0,.55,4.7,4.7,0,0,0,2.36,1.907l-1.652.826A2.576,2.576,0,0,0,0,93.749V98.3a.615.615,0,0,0,1.231,0V93.749a1.352,1.352,0,0,1,.751-1.215L4.039,91.5l.715.68a2.588,2.588,0,0,0,3.568,0l.715-.68.671.335a3.241,3.241,0,0,0-.5,1.718V98.3a.615.615,0,0,0,1.231,0V93.559a2.023,2.023,0,0,1,1.328-1.9l3.993-1.452L17.427,92.7a1.269,1.269,0,0,0,.934.561q.064.006.127.006a1.269,1.269,0,0,0,.9-.373L20.4,91.885V98.3a.615.615,0,1,0,1.231,0V91.885L22.646,92.9a1.268,1.268,0,0,0,.9.373q.063,0,.127-.006a1.269,1.269,0,0,0,.934-.561l1.662-2.493,3.993,1.452a2.023,2.023,0,0,1,1.328,1.9V98.3a.615.615,0,1,0,1.231,0V93.559a3.254,3.254,0,0,0-.91-2.252l.152-.043a3.376,3.376,0,0,0,.573-.207l1.571,1.571V98.3a.615.615,0,1,0,1.231,0V92.628L37,91.068a1.465,1.465,0,0,0,.262.1L39.8,91.9a1.365,1.365,0,0,1,.986,1.307V98.3a.615.615,0,1,0,1.231,0V93.2A2.6,2.6,0,0,0,40.139,90.714ZM3.949,89.627a4.425,4.425,0,0,1-1.975-1.268,6.785,6.785,0,0,0,.351-1.474,4.59,4.59,0,0,0,1.624,2Zm3.526,1.666a1.358,1.358,0,0,1-1.872,0l-.572-.544a1.273,1.273,0,0,0,.15-.6v-.656a4.577,4.577,0,0,0,2.718,0v.656a1.274,1.274,0,0,0,.15.6Zm-.936-2.826a3.337,3.337,0,0,1-3.333-3.333.612.612,0,0,0-.717-.606c0-.053,0-.106.005-.158.014-.423.027-.823.051-1.166a4.57,4.57,0,0,1,1.244-2.87,3.824,3.824,0,0,1,5.5,0,4.57,4.57,0,0,1,1.244,2.87c.024.343.038.742.052,1.166l0,.11a5.53,5.53,0,0,0-3.04-2.221,7.725,7.725,0,0,0-2.341-.371.616.616,0,0,0-.426.188L3.669,83.226a.615.615,0,0,0,.886.854l.924-.958c.8.039,3.356.337,4.352,2.529A3.325,3.325,0,0,1,6.539,88.467Zm2.589,1.162v-.734a4.553,4.553,0,0,0,1.625-2.006,6.776,6.776,0,0,0,.35,1.47A4.446,4.446,0,0,1,9.128,89.629Zm5.923-9.985V78.117a.616.616,0,0,0-.061-.268,5.9,5.9,0,0,1-.6-2.587V73.946A4.655,4.655,0,0,1,19.042,69.3h8.6v5.965a5.9,5.9,0,0,1-.6,2.587.616.616,0,0,0-.061.268v1.753A5.909,5.909,0,0,1,25.1,84.222a6.127,6.127,0,0,1-.473.4l-.011.008a5.918,5.918,0,0,1-3.994,1.192A6.1,6.1,0,0,1,15.051,79.644Zm3.466,12.385a.039.039,0,0,1-.034.012.039.039,0,0,1-.031-.019L16.537,89.15l.616-.647,2.9,1.985Zm2.5-2.375-3.333-2.278V86.226a6.93,6.93,0,0,0,2.855.824q.243.016.484.016a7.129,7.129,0,0,0,3.327-.815v1.124Zm2.566,2.369a.039.039,0,0,1-.031.019.038.038,0,0,1-.034-.012l-1.54-1.54,2.9-1.985.616.647ZM34.821,91.5l-1.4-1.4a1.689,1.689,0,0,0,.038-.366v-.26a4.316,4.316,0,0,0,1.219.215l.142,0a4.572,4.572,0,0,0,1.357-.205v.248a1.471,1.471,0,0,0,.044.359Zm2.321-3.976a3.308,3.308,0,0,1-2.424.939,3.445,3.445,0,0,1-3.23-3.5V83.818a.615.615,0,0,0-.065-.275l-.38-.76a2.027,2.027,0,0,1-.213-.9v-.037A2.678,2.678,0,0,1,33.5,79.168h5.307v2.556a2.689,2.689,0,0,1-.282,1.2l-.311.621a.615.615,0,0,0-.065.275v1.316A3.307,3.307,0,0,1,37.142,87.526Z" transform="translate(0 -68.066)"/></g></g><g transform="translate(38.154 93.732)"><g transform="translate(0 0)"><path class="a" d="M465.538,380.814a.615.615,0,0,0-.615.615v3.949a.615.615,0,1,0,1.231,0v-3.949A.616.616,0,0,0,465.538,380.814Z" transform="translate(-464.923 -380.814)"/></g></g><g transform="translate(2.632 94.545)"><path class="a" d="M32.692,390.728a.615.615,0,0,0-.615.615v3.135a.615.615,0,1,0,1.231,0v-3.135A.616.616,0,0,0,32.692,390.728Z" transform="translate(-32.077 -390.728)"/></g><g transform="translate(15.794 73.658)"><g transform="translate(0 0)"><path class="a" d="M202.724,138.03c-2.328-2.328-7.2-1.883-9.184-1.583a1.264,1.264,0,0,0-1.08,1.259v1.418a.615.615,0,1,0,1.231,0v-1.418a.041.041,0,0,1,.032-.042,19.444,19.444,0,0,1,4-.2,6.353,6.353,0,0,1,4.132,1.432.615.615,0,0,0,.87-.87Z" transform="translate(-192.46 -136.203)"/></g></g><g transform="translate(13.162 95.048)"><g transform="translate(0 0)"><path class="a" d="M161,396.853a.616.616,0,0,0-.615.615V400.1a.615.615,0,0,0,1.231,0v-2.632A.616.616,0,0,0,161,396.853Z" transform="translate(-160.384 -396.853)"/></g></g><g transform="translate(27.64 95.048)"><g transform="translate(0 0)"><path class="a" d="M337.421,396.853a.616.616,0,0,0-.615.615V400.1a.615.615,0,0,0,1.231,0v-2.632A.616.616,0,0,0,337.421,396.853Z" transform="translate(-336.806 -396.853)"/></g></g></g></svg>