<svg xmlns="http://www.w3.org/2000/svg" width="36.999" height="28.414" viewBox="0 0 36.999 28.414"><defs><style>.a{fill:#585858;}</style></defs><g transform="translate(1 -58.307)"><g transform="translate(-1 58.307)"><g transform="translate(0 0)"><path class="a" d="M35.629,64.669a8.963,8.963,0,0,0-1.544-4.138,5.375,5.375,0,0,0-3.768-1.791H30.07c-5-.371-12.477-.432-12.6-.432-.062,0-7.6.062-12.539.556H4.745A5.181,5.181,0,0,0,.977,60.654c-1.235,1.3-1.606,4.077-1.606,4.2A61.8,61.8,0,0,0-1,71.155v2.9c0,3.088.371,6.239.371,6.3A8.963,8.963,0,0,0,.915,84.5a5.507,5.507,0,0,0,3.83,1.791,1.361,1.361,0,0,1,.494.062c2.841.247,11.86.371,12.23.371.062,0,7.6,0,12.6-.556h.185a5.181,5.181,0,0,0,3.768-1.791c1.235-1.3,1.606-4.077,1.606-4.2a61.8,61.8,0,0,0,.371-6.3v-2.9C36,67.881,35.629,64.731,35.629,64.669ZM34.764,74a59.413,59.413,0,0,1-.371,6.177,8.238,8.238,0,0,1-1.3,3.521,4.044,4.044,0,0,1-2.965,1.421h-.185c-4.942.371-12.415.371-12.477.371s-9.327-.124-12.045-.432c-.185,0-.371-.062-.556-.062A4.28,4.28,0,0,1,1.78,83.632,7.593,7.593,0,0,1,.544,80.173c0-.062-.371-3.15-.371-6.177v-2.9a59.413,59.413,0,0,1,.371-6.177A8.062,8.062,0,0,1,1.78,61.4a4.155,4.155,0,0,1,3.027-1.421h.185c4.942-.371,12.415-.432,12.477-.432s7.536.062,12.477.432h.247A4.044,4.044,0,0,1,33.158,61.4a8.947,8.947,0,0,1,1.235,3.521,48.626,48.626,0,0,1,.371,6.177V74Z" transform="translate(1 -58.307)"/><path class="a" d="M198.542,166.376l-11.736-6.856a.561.561,0,0,0-.618,0,.649.649,0,0,0-.309.556v13.4a.649.649,0,0,0,.309.556.8.8,0,0,0,.618,0l11.736-6.547a.655.655,0,0,0,0-1.112Zm-11.427,6.053v-11.3L197,166.932Z" transform="translate(-172.353 -152.107)"/></g></g></g></svg>